# Blender v2.79 (sub 0) OBJ File: 'PistaPruebas.blend'
# www.blender.org
mtllib PistaPruebas.mtl
o Cube
v -4.734519 1.000000 3.840195
v -4.084116 1.000000 0.564702
v -2.843230 1.000000 4.490599
v -2.192827 1.000000 1.215106
v -4.734519 1.000000 3.840195
v -4.084116 1.000000 0.564702
v -2.192827 1.000000 1.215106
v -2.843230 1.000000 4.490599
v 1.277303 1.000000 2.489447
v 0.626899 1.000000 5.764940
v 4.080853 1.000000 3.528525
v 3.646107 1.000000 6.843228
v -6.204914 1.000000 3.399077
v -5.554510 1.000000 0.123584
v -7.103488 1.000000 3.268375
v -6.534772 1.000000 -0.007118
v -7.920373 1.000000 3.627805
v -7.858126 1.000000 -0.007118
v -8.202687 1.000000 4.051278
v -9.354399 1.000000 0.557513
v -8.507588 1.000000 5.169248
v -10.845023 1.000000 1.709360
v -8.507588 1.000000 7.235798
v -11.861359 1.000000 4.250201
v -8.389956 1.000000 8.218256
v -11.759724 1.000000 8.451057
v -8.013535 1.000000 8.806414
v -11.242146 1.000000 10.192005
v -6.799578 1.000000 9.060497
v -9.887031 1.000000 11.462423
v -5.924399 1.000000 9.060497
v -8.334294 1.000000 12.168213
v 6.920959 1.000000 8.947571
v 6.882517 1.000000 12.207738
v 8.377708 1.000000 8.236135
v 8.339265 1.000000 11.868959
v 8.750365 1.000000 7.761846
v 9.592746 1.000000 11.394670
v 8.953632 1.000000 6.643876
v 10.710715 1.000000 10.513844
v 8.953631 1.000000 5.491087
v 11.675293 1.000000 9.337528
v 8.953632 1.000000 4.832351
v 12.098767 1.000000 8.067108
v 8.953631 1.000000 4.291245
v 12.263452 1.000000 6.773162
v 8.897169 1.000000 -8.007174
v 12.141491 1.000000 -8.000039
v 8.530158 1.000000 -8.600039
v 11.915638 1.000000 -9.355156
v 8.078453 1.000000 -8.741195
v 11.520395 1.000000 -10.202103
v 7.259737 1.000000 -8.769425
v 10.899300 1.000000 -10.879662
v 6.284054 1.000000 -8.623071
v 9.728479 1.000000 -11.660209
v 5.893782 1.000000 -8.623071
v 8.118603 1.000000 -12.050480
v 5.162019 1.000000 -8.574286
v 6.557510 1.000000 -12.050482
v 3.891598 1.000000 -8.376667
v 4.214291 1.000000 -11.711702
v 1.717768 1.000000 -8.150815
v 1.786376 1.000000 -11.429387
v -7.316330 1.000000 -8.884836
v -7.247722 1.000000 -12.389260
v -7.824497 1.000000 -8.658983
v -8.546374 1.000000 -11.909325
v -8.586750 1.000000 -8.037890
v -9.590941 1.000000 -11.514083
v -8.784369 1.000000 -7.557954
v -10.691972 1.000000 -10.780063
v -8.979506 1.000000 -6.631056
v -11.618870 1.000000 -9.609244
v -8.979506 1.000000 -5.752941
v -12.204280 1.000000 -7.511526
v -8.296529 1.000000 -4.826043
v -12.155495 1.000000 -5.169888
v -7.711120 1.000000 -4.533339
v -11.228598 1.000000 -3.072170
v -7.125710 1.000000 -4.533339
v -10.057777 1.000000 -1.998919
v -6.442732 1.000000 -4.679691
v -8.740605 1.000000 -1.315941
v -5.759754 1.000000 -5.021180
v -6.740457 1.000000 -1.169588
v -4.588935 1.000000 -5.996863
v -4.837875 1.000000 -1.706213
v -3.808389 1.000000 -6.354918
v -3.862193 1.000000 -2.340406
v -3.465297 1.000000 -6.452945
v -3.617127 1.000000 -2.569135
v -3.073193 1.000000 -6.452945
v -3.470088 1.000000 -2.438433
v -2.480330 1.000000 -6.340019
v -3.131310 1.000000 -1.704413
v -1.689847 1.000000 -5.944777
v -2.764299 1.000000 -1.026855
v -0.955827 1.000000 -4.984904
v -2.369057 1.000000 -0.066983
v -0.273563 1.000000 -3.291011
v -1.592690 1.000000 0.615280
v 0.408699 1.000000 -2.114696
v -0.110533 1.000000 1.226964
v 4.996326 1.000000 -1.950012
v 4.900568 1.000000 1.226963
v 6.690220 1.000000 -1.950011
v 5.253463 1.000000 1.226964
v 7.372484 1.000000 -1.738276
v 5.535779 1.000000 1.297543
v 8.242957 1.000000 -0.514907
v 5.629884 1.000000 1.462227
v 8.431168 1.000000 0.402619
v 5.629884 1.000000 1.650437
v 8.431169 1.000000 1.696565
v 5.629885 1.000000 1.846490
v 8.431169 1.000000 3.003582
v 5.629885 1.000000 2.159630
v 7.984169 1.000000 4.650423
v 5.559305 1.000000 2.606629
v 7.443064 1.000000 5.709107
v 5.347569 1.000000 3.382997
v 6.478485 1.000000 6.603106
v 5.061333 1.000000 3.524155
v 5.811907 1.000000 6.838369
v 4.884886 1.000000 3.582971
v -4.734519 0.836607 3.840195
v -4.084116 0.836607 0.564702
v -2.843230 0.836607 4.490599
v -2.192827 0.836607 1.215106
v -4.734519 0.836607 3.840195
v -4.084116 0.836607 0.564702
v -2.192827 0.836607 1.215106
v -2.843230 0.836607 4.490599
v 1.277303 0.836607 2.489447
v 0.626899 0.836607 5.764940
v 4.080853 0.836607 3.528525
v 3.646107 0.836607 6.843228
v -6.204914 0.836607 3.399077
v -5.554510 0.836607 0.123584
v -7.103488 0.836607 3.268375
v -6.534772 0.836607 -0.007118
v -7.920373 0.836607 3.627805
v -7.858126 0.836607 -0.007118
v -8.202687 0.836607 4.051278
v -9.354399 0.836607 0.557513
v -8.507588 0.836607 5.169248
v -10.845023 0.836607 1.709360
v -8.507588 0.836607 7.235798
v -11.861359 0.836607 4.250201
v -8.389956 0.836607 8.218256
v -11.759724 0.836607 8.451057
v -8.013535 0.836607 8.806414
v -11.242146 0.836607 10.192005
v -6.799578 0.836607 9.060497
v -9.887031 0.836607 11.462423
v -5.924399 0.836607 9.060497
v -8.334294 0.836607 12.168213
v 6.920959 0.836607 8.947571
v 6.882517 0.836607 12.207738
v 8.377708 0.836607 8.236135
v 8.339265 0.836607 11.868959
v 8.750365 0.836607 7.761846
v 9.592746 0.836607 11.394670
v 8.953632 0.836607 6.643876
v 10.710715 0.836607 10.513844
v 8.953631 0.836607 5.491087
v 11.675293 0.836607 9.337528
v 8.953632 0.836607 4.832351
v 12.098767 0.836607 8.067108
v 8.953631 0.836607 4.291245
v 12.263452 0.836607 6.773162
v 8.897169 0.836607 -8.007174
v 12.141491 0.836607 -8.000039
v 8.530158 0.836607 -8.600039
v 11.915638 0.836607 -9.355156
v 8.078453 0.836607 -8.741195
v 11.520395 0.836607 -10.202103
v 7.259737 0.836607 -8.769425
v 10.899300 0.836607 -10.879662
v 6.284054 0.836607 -8.623071
v 9.728479 0.836607 -11.660209
v 5.893782 0.836607 -8.623071
v 8.118603 0.836607 -12.050480
v 5.162019 0.836607 -8.574286
v 6.557510 0.836607 -12.050482
v 3.891598 0.836607 -8.376667
v 4.214291 0.836607 -11.711702
v 1.717768 0.836607 -8.150815
v 1.786376 0.836607 -11.429387
v -7.316330 0.836607 -8.884836
v -7.247722 0.836607 -12.389260
v -7.824497 0.836607 -8.658983
v -8.546374 0.836607 -11.909325
v -8.586750 0.836607 -8.037890
v -9.590941 0.836607 -11.514083
v -8.784369 0.836607 -7.557954
v -10.691972 0.836607 -10.780063
v -8.979506 0.836607 -6.631056
v -11.618870 0.836607 -9.609244
v -8.979506 0.836607 -5.752941
v -12.204280 0.836607 -7.511526
v -8.296529 0.836607 -4.826043
v -12.155495 0.836607 -5.169888
v -7.711120 0.836607 -4.533339
v -11.228598 0.836607 -3.072170
v -7.125710 0.836607 -4.533339
v -10.057777 0.836607 -1.998919
v -6.442732 0.836607 -4.679691
v -8.740605 0.836607 -1.315941
v -5.759754 0.836607 -5.021180
v -6.740457 0.836607 -1.169588
v -4.588935 0.836607 -5.996863
v -4.837875 0.836607 -1.706213
v -3.808389 0.836607 -6.354918
v -3.862193 0.836607 -2.340406
v -3.465297 0.836607 -6.452945
v -3.617127 0.836607 -2.569135
v -3.073193 0.836607 -6.452945
v -3.470088 0.836607 -2.438433
v -2.480330 0.836607 -6.340019
v -3.131310 0.836607 -1.704413
v -1.689847 0.836607 -5.944777
v -2.764299 0.836607 -1.026855
v -0.955827 0.836607 -4.984904
v -2.369057 0.836607 -0.066983
v -0.273563 0.836607 -3.291011
v -1.592690 0.836607 0.615280
v 0.408699 0.836607 -2.114696
v -0.110533 0.836607 1.226964
v 4.996326 0.836607 -1.950012
v 4.900568 0.836607 1.226963
v 6.690220 0.836607 -1.950011
v 5.253463 0.836607 1.226964
v 7.372484 0.836607 -1.738276
v 5.535779 0.836607 1.297543
v 8.242957 0.836607 -0.514907
v 5.629884 0.836607 1.462227
v 8.431168 0.836607 0.402619
v 5.629884 0.836607 1.650437
v 8.431169 0.836607 1.696565
v 5.629885 0.836607 1.846490
v 8.431169 0.836607 3.003582
v 5.629885 0.836607 2.159630
v 7.984169 0.836607 4.650423
v 5.559305 0.836607 2.606629
v 7.443064 0.836607 5.709107
v 5.347569 0.836607 3.382997
v 6.478485 0.836607 6.603106
v 5.061333 0.836607 3.524155
v 5.811907 0.836607 6.838369
v 4.884886 0.836607 3.582971
vn 0.2044 0.0000 0.9789
vn -0.0805 -0.5534 0.8290
vn 0.1252 -0.8822 0.4539
vn 0.7227 0.0000 0.6912
vn -0.0967 -0.5575 0.8245
vn 0.1498 -0.8746 0.4611
vn -0.6065 0.0000 0.7951
vn -0.4289 0.0000 0.9033
vn -0.2448 -0.7067 0.6637
vn 0.2411 -0.7061 -0.6658
vn -0.1408 -0.7408 0.6568
vn 0.1258 -0.6704 -0.7312
vn 0.1491 -0.7240 -0.6735
vn -0.1523 -0.6897 0.7079
vn -0.0851 -0.7748 -0.6265
vn -0.0478 -0.6925 0.7198
vn -0.4057 -0.7760 -0.4830
vn 0.1334 -0.6688 0.7313
vn -0.6071 -0.7450 -0.2763
vn 0.3596 -0.6753 0.6439
vn -0.6686 -0.7382 -0.0895
vn 0.6048 -0.6524 0.4566
vn -0.6919 -0.7208 0.0413
vn 0.7354 -0.6645 0.1324
vn -0.6107 -0.7609 0.2189
vn 0.7255 -0.6785 -0.1145
vn -0.3365 -0.8054 0.4878
vn 0.6445 -0.6527 -0.3981
vn -0.0703 -0.7310 0.6787
vn 0.4118 -0.6723 -0.6152
vn 0.0031 -0.7081 0.7061
vn 0.1595 -0.6626 -0.7317
vn 0.1490 -0.7604 0.6321
vn -0.0824 -0.6820 -0.7266
vn 0.4077 -0.7610 0.5046
vn -0.2098 -0.6924 -0.6903
vn 0.5867 -0.7655 0.2641
vn -0.3634 -0.6744 -0.6428
vn 0.6829 -0.7279 0.0616
vn -0.5110 -0.6836 -0.5211
vn 0.7071 -0.7071 0.0000
vn -0.6512 -0.6684 -0.3594
vn -0.7096 -0.6858 -0.1618
vn 0.7066 -0.7076 -0.0016
vn -0.7204 -0.6923 -0.0427
vn 0.6091 -0.7736 -0.1748
vn -0.7212 -0.6899 0.0627
vn 0.3719 -0.7948 -0.4795
vn -0.7021 -0.6779 0.2179
vn 0.1132 -0.7385 -0.6647
vn -0.6138 -0.6744 0.4103
vn -0.0392 -0.7283 -0.6841
vn -0.4764 -0.6810 0.5560
vn -0.0538 -0.6907 -0.7211
vn -0.2979 -0.6699 0.6800
vn -0.0233 -0.7147 -0.6991
vn -0.0868 -0.6813 0.7268
vn -0.0768 -0.7171 -0.6927
vn 0.0518 -0.6913 0.7207
vn -0.0916 -0.7014 -0.7068
vn 0.0910 -0.7102 0.6980
vn -0.0081 -0.6869 -0.7266
vn 0.0034 -0.7328 0.6803
vn -0.1076 -0.7671 -0.6323
vn 0.0931 -0.6592 0.7461
vn -0.3532 -0.7381 -0.5748
vn 0.2480 -0.7062 0.6631
vn -0.5153 -0.7668 -0.3827
vn 0.3341 -0.6825 0.6500
vn -0.6549 -0.7283 -0.2019
vn 0.5008 -0.6736 0.5435
vn -0.6785 -0.7312 -0.0706
vn 0.6653 -0.6652 0.3387
vn -0.5890 -0.7846 0.1935
vn 0.7314 -0.6757 0.0924
vn -0.4157 -0.7637 0.4939
vn 0.7287 -0.6655 -0.1617
vn -0.1486 -0.7627 0.6295
vn 0.6077 -0.6637 -0.4360
vn 0.0718 -0.7316 0.6779
vn 0.4208 -0.6787 -0.6019
vn 0.2239 -0.7366 0.6382
vn 0.2034 -0.6645 -0.7191
vn 0.3717 -0.7340 0.5684
vn -0.0748 -0.6701 -0.7384
vn 0.3916 -0.6786 0.6214
vn -0.3047 -0.6748 -0.6721
vn 0.2509 -0.6904 0.6785
vn -0.4470 -0.6880 -0.5717
vn 0.1021 -0.6772 0.7287
vn -0.0054 -0.8934 -0.4492
vn -0.0683 -0.6865 0.7238
vn 0.5256 -0.7561 -0.3899
vn -0.2355 -0.6774 0.6968
vn 0.6385 -0.7000 -0.3199
vn -0.4788 -0.6597 0.5792
vn 0.6276 -0.7192 -0.2981
vn -0.6386 -0.6780 0.3638
vn 0.6118 -0.6593 -0.4370
vn -0.6203 -0.7235 0.3029
vn 0.3910 -0.6720 -0.6289
vn -0.2842 -0.8336 0.4735
vn 0.1451 -0.6658 -0.7318
vn -0.0126 -0.7111 0.7029
vn 0.0000 -0.7071 -0.7071
vn -0.1106 -0.6749 0.7296
vn 0.0827 -0.7356 -0.6723
vn -0.4498 -0.6417 0.6212
vn 0.3566 -0.8070 -0.4707
vn -0.6861 -0.6634 0.2985
vn 0.6170 -0.7697 -0.1639
vn -0.7248 -0.6850 0.0735
vn -0.7071 -0.7071 0.0000
vn -0.7281 -0.6785 -0.0970
vn 0.6865 -0.7251 0.0538
vn -0.6800 -0.6845 -0.2628
vn 0.6789 -0.7196 0.1457
vn -0.5920 -0.6699 -0.4481
vn 0.4501 -0.8122 0.3711
vn -0.3865 -0.6642 -0.6399
vn 0.2627 -0.7228 0.6392
vn -0.1259 -0.6712 -0.7305
vn 0.0833 -0.7533 0.6523
vn 0.1252 0.8822 0.4539
vn -0.0805 0.5534 0.8290
vn -0.0967 0.5575 0.8245
vn 0.1498 0.8746 0.4611
vn 0.2411 0.7061 -0.6658
vn -0.2448 0.7067 0.6637
vn 0.1258 0.6704 -0.7312
vn -0.1408 0.7408 0.6568
vn -0.1523 0.6897 0.7079
vn 0.1491 0.7240 -0.6735
vn -0.0478 0.6925 0.7198
vn -0.0851 0.7748 -0.6265
vn 0.1334 0.6688 0.7313
vn -0.4057 0.7760 -0.4830
vn 0.3596 0.6753 0.6439
vn -0.6071 0.7450 -0.2763
vn 0.6048 0.6524 0.4566
vn -0.6686 0.7382 -0.0895
vn 0.7354 0.6645 0.1324
vn -0.6919 0.7208 0.0413
vn 0.7255 0.6785 -0.1145
vn -0.6107 0.7609 0.2189
vn 0.6445 0.6527 -0.3981
vn -0.3365 0.8054 0.4878
vn 0.4118 0.6723 -0.6152
vn -0.0703 0.7310 0.6787
vn 0.1595 0.6626 -0.7317
vn 0.0031 0.7081 0.7061
vn -0.0824 0.6820 -0.7266
vn 0.1490 0.7604 0.6321
vn -0.2098 0.6924 -0.6903
vn 0.4077 0.7610 0.5046
vn -0.3634 0.6744 -0.6428
vn 0.5867 0.7655 0.2641
vn -0.5110 0.6836 -0.5211
vn 0.6829 0.7279 0.0616
vn -0.6512 0.6684 -0.3594
vn 0.7071 0.7071 0.0000
vn -0.7096 0.6858 -0.1618
vn -0.7204 0.6923 -0.0427
vn 0.7066 0.7076 -0.0016
vn -0.7212 0.6899 0.0627
vn 0.6091 0.7736 -0.1748
vn -0.7021 0.6779 0.2179
vn 0.3719 0.7948 -0.4795
vn -0.6138 0.6744 0.4103
vn 0.1132 0.7385 -0.6647
vn -0.4764 0.6810 0.5560
vn -0.0392 0.7283 -0.6841
vn -0.2979 0.6699 0.6800
vn -0.0538 0.6907 -0.7211
vn -0.0868 0.6813 0.7268
vn -0.0233 0.7147 -0.6991
vn 0.0518 0.6913 0.7207
vn -0.0768 0.7171 -0.6927
vn 0.0910 0.7102 0.6980
vn -0.0916 0.7014 -0.7068
vn 0.0034 0.7328 0.6803
vn -0.0081 0.6869 -0.7266
vn 0.0931 0.6592 0.7461
vn -0.1076 0.7671 -0.6323
vn 0.2480 0.7062 0.6631
vn -0.3532 0.7381 -0.5748
vn 0.3341 0.6825 0.6500
vn -0.5153 0.7668 -0.3827
vn 0.5008 0.6736 0.5435
vn -0.6549 0.7283 -0.2019
vn 0.6653 0.6652 0.3387
vn -0.6785 0.7312 -0.0706
vn 0.7314 0.6757 0.0924
vn -0.5890 0.7846 0.1935
vn 0.7287 0.6655 -0.1617
vn -0.4157 0.7637 0.4939
vn 0.6077 0.6637 -0.4360
vn -0.1486 0.7627 0.6295
vn 0.4208 0.6787 -0.6019
vn 0.0718 0.7316 0.6779
vn 0.2034 0.6645 -0.7191
vn 0.2239 0.7366 0.6382
vn -0.0748 0.6701 -0.7384
vn 0.3717 0.7340 0.5684
vn -0.3047 0.6748 -0.6721
vn 0.3916 0.6786 0.6214
vn -0.4470 0.6880 -0.5717
vn 0.2509 0.6904 0.6785
vn -0.0054 0.8934 -0.4492
vn 0.1021 0.6772 0.7287
vn 0.5256 0.7561 -0.3899
vn -0.0683 0.6865 0.7238
vn 0.6385 0.7000 -0.3199
vn -0.2355 0.6774 0.6968
vn 0.6276 0.7192 -0.2981
vn -0.4788 0.6597 0.5792
vn 0.6118 0.6593 -0.4370
vn -0.6386 0.6780 0.3638
vn 0.3910 0.6720 -0.6289
vn -0.6203 0.7235 0.3029
vn 0.1451 0.6658 -0.7318
vn -0.2842 0.8336 0.4735
vn 0.0000 0.7071 -0.7071
vn -0.0126 0.7111 0.7029
vn 0.0827 0.7356 -0.6723
vn -0.1106 0.6749 0.7296
vn 0.3566 0.8070 -0.4707
vn -0.4498 0.6417 0.6212
vn 0.6170 0.7697 -0.1639
vn -0.6861 0.6634 0.2985
vn -0.7248 0.6850 0.0735
vn -0.7071 0.7071 0.0000
vn 0.6865 0.7251 0.0538
vn -0.7281 0.6785 -0.0970
vn 0.6789 0.7196 0.1457
vn -0.6800 0.6845 -0.2628
vn 0.4501 0.8122 0.3711
vn -0.5920 0.6699 -0.4481
vn 0.2627 0.7228 0.6392
vn -0.3865 0.6642 -0.6399
vn 0.0833 0.7533 0.6523
vn -0.1259 0.6712 -0.7305
usemtl None
s 1
f 2//1 6//2 5//3 1//4
f 7//5 8//6 5//3 6//2
f 1//4 5//3 8//6 3//7
f 4//8 7//5 6//2 2//1
f 3//7 8//6 7//5 4//8
f 8//6 7//5 9//9 10//10
f 10//10 9//9 11//11 12//12
f 5//3 13//13 14//14 6//2
f 13//13 15//15 16//16 14//14
f 15//15 17//17 18//18 16//16
f 17//17 19//19 20//20 18//18
f 19//19 21//21 22//22 20//20
f 21//21 23//23 24//24 22//22
f 23//23 25//25 26//26 24//24
f 25//25 27//27 28//28 26//26
f 27//27 29//29 30//30 28//28
f 29//29 31//31 32//32 30//30
f 31//31 33//33 34//34 32//32
f 33//33 35//35 36//36 34//34
f 35//35 37//37 38//38 36//36
f 37//37 39//39 40//40 38//38
f 39//39 41//41 42//42 40//40
f 41//41 43//41 44//43 42//42
f 43//41 45//44 46//45 44//43
f 45//44 47//46 48//47 46//45
f 47//46 49//48 50//49 48//47
f 49//48 51//50 52//51 50//49
f 51//50 53//52 54//53 52//51
f 53//52 55//54 56//55 54//53
f 55//54 57//56 58//57 56//55
f 57//56 59//58 60//59 58//57
f 59//58 61//60 62//61 60//59
f 61//60 63//62 64//63 62//61
f 63//62 65//64 66//65 64//63
f 65//64 67//66 68//67 66//65
f 67//66 69//68 70//69 68//67
f 69//68 71//70 72//71 70//69
f 71//70 73//72 74//73 72//71
f 73//72 75//74 76//75 74//73
f 75//74 77//76 78//77 76//75
f 77//76 79//78 80//79 78//77
f 79//78 81//80 82//81 80//79
f 81//80 83//82 84//83 82//81
f 83//82 85//84 86//85 84//83
f 85//84 87//86 88//87 86//85
f 87//86 89//88 90//89 88//87
f 89//88 91//90 92//91 90//89
f 91//90 93//92 94//93 92//91
f 93//92 95//94 96//95 94//93
f 95//94 97//96 98//97 96//95
f 97//96 99//98 100//99 98//97
f 99//98 101//100 102//101 100//99
f 101//100 103//102 104//103 102//101
f 103//102 105//104 106//105 104//103
f 105//104 107//106 108//107 106//105
f 107//106 109//108 110//109 108//107
f 109//108 111//110 112//111 110//109
f 111//110 113//112 114//41 112//111
f 113//112 115//113 116//41 114//41
f 115//113 117//114 118//115 116//41
f 117//114 119//116 120//117 118//115
f 119//116 121//118 122//119 120//117
f 121//118 123//120 124//121 122//119
f 123//120 125//122 126//123 124//121
f 11//11 126//123 125//122 12//12
f 128//1 127//4 131//124 132//125
f 133//126 132//125 131//124 134//127
f 127//4 129//7 134//127 131//124
f 130//8 128//1 132//125 133//126
f 129//7 130//8 133//126 134//127
f 134//127 136//128 135//129 133//126
f 136//128 138//130 137//131 135//129
f 131//124 132//125 140//132 139//133
f 139//133 140//132 142//134 141//135
f 141//135 142//134 144//136 143//137
f 143//137 144//136 146//138 145//139
f 145//139 146//138 148//140 147//141
f 147//141 148//140 150//142 149//143
f 149//143 150//142 152//144 151//145
f 151//145 152//144 154//146 153//147
f 153//147 154//146 156//148 155//149
f 155//149 156//148 158//150 157//151
f 157//151 158//150 160//152 159//153
f 159//153 160//152 162//154 161//155
f 161//155 162//154 164//156 163//157
f 163//157 164//156 166//158 165//159
f 165//159 166//158 168//160 167//161
f 167//161 168//160 170//162 169//161
f 169//161 170//162 172//163 171//164
f 171//164 172//163 174//165 173//166
f 173//166 174//165 176//167 175//168
f 175//168 176//167 178//169 177//170
f 177//170 178//169 180//171 179//172
f 179//172 180//171 182//173 181//174
f 181//174 182//173 184//175 183//176
f 183//176 184//175 186//177 185//178
f 185//178 186//177 188//179 187//180
f 187//180 188//179 190//181 189//182
f 189//182 190//181 192//183 191//184
f 191//184 192//183 194//185 193//186
f 193//186 194//185 196//187 195//188
f 195//188 196//187 198//189 197//190
f 197//190 198//189 200//191 199//192
f 199//192 200//191 202//193 201//194
f 201//194 202//193 204//195 203//196
f 203//196 204//195 206//197 205//198
f 205//198 206//197 208//199 207//200
f 207//200 208//199 210//201 209//202
f 209//202 210//201 212//203 211//204
f 211//204 212//203 214//205 213//206
f 213//206 214//205 216//207 215//208
f 215//208 216//207 218//209 217//210
f 217//210 218//209 220//211 219//212
f 219//212 220//211 222//213 221//214
f 221//214 222//213 224//215 223//216
f 223//216 224//215 226//217 225//218
f 225//218 226//217 228//219 227//220
f 227//220 228//219 230//221 229//222
f 229//222 230//221 232//223 231//224
f 231//224 232//223 234//225 233//226
f 233//226 234//225 236//227 235//228
f 235//228 236//227 238//229 237//230
f 237//230 238//229 240//161 239//231
f 239//231 240//161 242//161 241//232
f 241//232 242//161 244//233 243//234
f 243//234 244//233 246//235 245//236
f 245//236 246//235 248//237 247//238
f 247//238 248//237 250//239 249//240
f 249//240 250//239 252//241 251//242
f 137//131 138//130 251//242 252//241
f 68//67 70//69 196//187 194//185
f 34//34 36//36 162//154 160//152
f 103//102 101//100 227//220 229//222
f 4//8 2//1 128//1 130//8
f 69//68 67//66 193//186 195//188
f 35//35 33//33 159//153 161//155
f 3//7 4//8 130//8 129//7
f 104//103 106//105 232//223 230//221
f 1//4 3//7 129//7 127//4
f 70//69 72//71 198//189 196//187
f 36//36 38//38 164//156 162//154
f 105//104 103//102 229//222 231//224
f 71//70 69//68 195//188 197//190
f 37//37 35//35 161//155 163//157
f 106//105 108//107 234//225 232//223
f 72//71 74//73 200//191 198//189
f 38//38 40//40 166//158 164//156
f 107//106 105//104 231//224 233//226
f 73//72 71//70 197//190 199//192
f 39//39 37//37 163//157 165//159
f 108//107 110//109 236//227 234//225
f 74//73 76//75 202//193 200//191
f 40//40 42//42 168//160 166//158
f 109//108 107//106 233//226 235//228
f 75//74 73//72 199//192 201//194
f 41//41 39//39 165//159 167//161
f 110//109 112//111 238//229 236//227
f 76//75 78//77 204//195 202//193
f 42//42 44//43 170//162 168//160
f 111//110 109//108 235//228 237//230
f 9//9 7//5 133//126 135//129
f 77//76 75//74 201//194 203//196
f 43//41 41//41 167//161 169//161
f 8//6 10//10 136//128 134//127
f 112//111 114//41 240//161 238//229
f 78//77 80//79 206//197 204//195
f 44//43 46//45 172//163 170//162
f 113//112 111//110 237//230 239//231
f 11//11 9//9 135//129 137//131
f 79//78 77//76 203//196 205//198
f 45//44 43//41 169//161 171//164
f 10//10 12//12 138//130 136//128
f 114//41 116//41 242//161 240//161
f 80//79 82//81 208//199 206//197
f 46//45 48//47 174//165 172//163
f 115//113 113//112 239//231 241//232
f 6//2 14//14 140//132 132//125
f 81//80 79//78 205//198 207//200
f 47//46 45//44 171//164 173//166
f 13//13 5//3 131//124 139//133
f 116//41 118//115 244//233 242//161
f 82//81 84//83 210//201 208//199
f 48//47 50//49 176//167 174//165
f 117//114 115//113 241//232 243//234
f 14//14 16//16 142//134 140//132
f 83//82 81//80 207//200 209//202
f 49//48 47//46 173//166 175//168
f 15//15 13//13 139//133 141//135
f 118//115 120//117 246//235 244//233
f 84//83 86//85 212//203 210//201
f 50//49 52//51 178//169 176//167
f 119//116 117//114 243//234 245//236
f 16//16 18//18 144//136 142//134
f 85//84 83//82 209//202 211//204
f 51//50 49//48 175//168 177//170
f 17//17 15//15 141//135 143//137
f 120//117 122//119 248//237 246//235
f 86//85 88//87 214//205 212//203
f 52//51 54//53 180//171 178//169
f 121//118 119//116 245//236 247//238
f 18//18 20//20 146//138 144//136
f 87//86 85//84 211//204 213//206
f 53//52 51//50 177//170 179//172
f 19//19 17//17 143//137 145//139
f 122//119 124//121 250//239 248//237
f 88//87 90//89 216//207 214//205
f 54//53 56//55 182//173 180//171
f 123//120 121//118 247//238 249//240
f 20//20 22//22 148//140 146//138
f 89//88 87//86 213//206 215//208
f 55//54 53//52 179//172 181//174
f 21//21 19//19 145//139 147//141
f 124//121 126//123 252//241 250//239
f 90//89 92//91 218//209 216//207
f 56//55 58//57 184//175 182//173
f 125//122 123//120 249//240 251//242
f 22//22 24//24 150//142 148//140
f 91//90 89//88 215//208 217//210
f 57//56 55//54 181//174 183//176
f 126//123 11//11 137//131 252//241
f 23//23 21//21 147//141 149//143
f 12//12 125//122 251//242 138//130
f 92//91 94//93 220//211 218//209
f 58//57 60//59 186//177 184//175
f 24//24 26//26 152//144 150//142
f 93//92 91//90 217//210 219//212
f 59//58 57//56 183//176 185//178
f 25//25 23//23 149//143 151//145
f 94//93 96//95 222//213 220//211
f 60//59 62//61 188//179 186//177
f 26//26 28//28 154//146 152//144
f 95//94 93//92 219//212 221//214
f 61//60 59//58 185//178 187//180
f 27//27 25//25 151//145 153//147
f 96//95 98//97 224//215 222//213
f 62//61 64//63 190//181 188//179
f 28//28 30//30 156//148 154//146
f 97//96 95//94 221//214 223//216
f 63//62 61//60 187//180 189//182
f 29//29 27//27 153//147 155//149
f 98//97 100//99 226//217 224//215
f 64//63 66//65 192//183 190//181
f 30//30 32//32 158//150 156//148
f 99//98 97//96 223//216 225//218
f 65//64 63//62 189//182 191//184
f 31//31 29//29 155//149 157//151
f 100//99 102//101 228//219 226//217
f 66//65 68//67 194//185 192//183
f 32//32 34//34 160//152 158//150
f 101//100 99//98 225//218 227//220
f 67//66 65//64 191//184 193//186
f 33//33 31//31 157//151 159//153
f 102//101 104//103 230//221 228//219
f 2//1 1//4 127//4 128//1
